<?xml version="1.0" standalone="no"?>
<!DOCTYPE svg PUBLIC "-//W3C//DTD SVG 20010904//EN"
 "http://www.w3.org/TR/2001/REC-SVG-20010904/DTD/svg10.dtd">
<svg version="1.0" xmlns="http://www.w3.org/2000/svg"
 width="1080.000000pt" height="1080.000000pt" viewBox="0 0 1080.000000 1080.000000"
 preserveAspectRatio="xMidYMid meet">
<metadata>
Created by potrace 1.11, written by Peter Selinger 2001-2013
</metadata>
<g transform="translate(0.000000,1080.000000) scale(0.100000,-0.100000)"
fill="#000000" stroke="none">
<path d="M5148 10735 c-2 -2 -49 -6 -106 -9 -100 -6 -165 -12 -227 -21 -16 -2
-70 -9 -120 -15 -110 -14 -351 -56 -402 -69 -21 -6 -49 -12 -63 -15 -14 -2
-63 -14 -110 -25 -47 -12 -94 -23 -105 -25 -11 -2 -40 -11 -65 -19 -39 -13
-112 -35 -145 -43 -45 -11 -365 -129 -432 -160 -17 -7 -34 -14 -37 -14 -7 0
-92 -39 -256 -118 -63 -30 -118 -54 -122 -54 -5 1 -8 -2 -8 -7 0 -5 -15 -15
-32 -22 -33 -13 -250 -136 -298 -168 -14 -9 -37 -23 -52 -31 -16 -7 -28 -17
-28 -22 0 -4 -4 -8 -10 -8 -8 0 -25 -10 -100 -60 -61 -41 -260 -186 -282 -206
-15 -13 -32 -24 -38 -24 -5 0 -10 -4 -10 -8 0 -5 -18 -21 -41 -38 -22 -16 -48
-36 -57 -45 -9 -8 -46 -40 -81 -70 -105 -89 -401 -372 -401 -384 0 -1 -19 -22
-42 -46 -66 -68 -118 -131 -118 -140 0 -5 -6 -9 -13 -9 -7 0 -18 -10 -26 -22
-8 -13 -49 -66 -90 -118 -70 -87 -132 -169 -171 -226 -8 -12 -35 -50 -60 -85
-25 -35 -49 -71 -55 -81 -50 -82 -90 -144 -97 -146 -4 -2 -8 -7 -8 -12 0 -12
-72 -134 -85 -142 -5 -4 -6 -8 -1 -8 5 0 2 -8 -7 -18 -10 -10 -14 -22 -10 -25
3 -4 2 -7 -3 -7 -6 0 -16 -16 -24 -35 -8 -19 -18 -35 -22 -35 -5 0 -6 -4 -3
-10 3 -5 1 -10 -6 -10 -7 0 -10 -3 -7 -6 4 -3 -8 -31 -26 -62 -17 -31 -46 -88
-63 -127 -17 -38 -46 -101 -63 -140 -18 -38 -45 -104 -62 -145 -16 -41 -36
-90 -44 -108 -8 -18 -17 -42 -19 -54 -3 -12 -9 -26 -14 -31 -5 -5 -7 -16 -4
-23 3 -8 1 -14 -4 -14 -5 0 -9 -8 -10 -17 -1 -10 -7 -31 -13 -48 -6 -16 -11
-30 -10 -30 1 0 -8 -24 -19 -52 -11 -29 -18 -53 -15 -53 4 0 1 -7 -6 -15 -7
-8 -9 -15 -5 -15 4 0 2 -7 -5 -15 -7 -8 -10 -15 -7 -15 4 0 0 -18 -8 -41 -8
-23 -13 -45 -10 -49 3 -5 1 -11 -4 -14 -4 -3 -12 -20 -16 -38 -4 -18 -9 -37
-10 -43 -5 -16 -16 -67 -21 -100 -3 -16 -9 -34 -14 -40 -4 -5 -6 -18 -5 -27 2
-10 -1 -20 -6 -24 -5 -3 -7 -10 -4 -15 4 -5 3 -14 -1 -21 -4 -7 -9 -25 -11
-42 -2 -16 -5 -40 -8 -53 -3 -12 -7 -35 -10 -50 -3 -16 -7 -37 -10 -48 -2 -11
-7 -42 -11 -70 -3 -27 -10 -58 -15 -67 -6 -10 -5 -19 1 -23 6 -4 8 -11 4 -16
-7 -12 -15 -58 -19 -109 -1 -19 -4 -35 -5 -35 -3 0 -7 -52 -11 -142 -2 -40 -7
-73 -10 -73 -7 0 -8 -732 0 -745 3 -5 6 -35 7 -65 1 -31 5 -83 10 -115 4 -33
9 -73 10 -90 1 -16 3 -30 4 -30 1 0 3 -13 5 -30 2 -16 6 -52 9 -80 3 -27 6
-50 7 -50 1 0 3 -13 4 -30 2 -16 4 -32 5 -35 2 -3 4 -9 5 -15 14 -88 30 -164
37 -178 6 -12 5 -17 -4 -17 -9 0 -10 -3 -2 -8 6 -4 14 -23 18 -42 7 -38 10
-53 27 -120 17 -69 17 -71 35 -135 9 -33 17 -64 19 -70 1 -5 5 -17 8 -25 3 -8
16 -49 28 -90 12 -41 23 -77 24 -80 1 -3 5 -13 9 -22 4 -9 9 -22 10 -30 2 -7
6 -21 10 -30 4 -9 9 -22 10 -30 3 -12 6 -22 23 -65 3 -10 7 -20 8 -23 1 -3 7
-18 14 -35 7 -16 23 -57 36 -91 12 -33 35 -87 50 -120 15 -32 28 -65 28 -71 0
-7 4 -13 9 -13 4 0 8 -6 8 -12 0 -7 25 -61 55 -121 30 -59 51 -107 47 -107 -4
0 -2 -4 4 -8 13 -8 47 -70 50 -91 2 -8 7 -17 11 -20 5 -3 24 -33 43 -66 18
-33 42 -76 53 -95 10 -19 32 -54 48 -78 16 -24 29 -47 29 -53 0 -5 5 -9 10 -9
6 0 10 -5 10 -10 0 -10 50 -89 85 -135 38 -50 75 -105 71 -105 -3 0 5 -11 17
-24 12 -13 38 -45 57 -72 19 -27 37 -51 40 -54 3 -3 28 -34 55 -70 28 -36 57
-72 65 -80 8 -9 30 -34 48 -55 109 -132 352 -382 496 -510 44 -38 90 -80 104
-93 14 -13 41 -35 61 -50 19 -15 48 -38 65 -52 133 -110 503 -370 526 -370 5
0 15 -6 22 -13 28 -27 276 -165 439 -244 312 -151 565 -249 875 -338 231 -67
582 -140 764 -160 28 -3 108 -13 160 -20 19 -2 76 -7 125 -11 50 -3 108 -8
130 -10 52 -5 537 -5 595 0 25 2 83 7 130 11 122 9 184 15 207 19 11 3 44 7
74 11 103 12 134 16 204 30 39 8 88 17 110 20 195 29 671 166 923 266 303 120
656 299 897 454 44 28 88 54 98 58 9 3 17 11 17 17 0 5 4 10 10 10 30 0 334
232 559 426 113 97 363 343 446 438 28 32 68 78 90 103 56 64 61 70 147 180
42 54 78 103 80 108 1 6 13 19 25 31 12 12 20 24 16 27 -3 4 -1 7 5 7 7 0 12
7 12 15 0 8 7 15 15 15 8 0 14 3 13 8 -1 4 35 62 80 130 45 68 82 127 82 131
0 4 9 16 20 26 11 10 17 22 14 26 -3 5 -1 9 3 9 5 0 19 19 31 43 26 50 52 95
75 131 10 14 14 26 10 26 -5 0 -3 4 3 8 16 10 64 108 57 116 -4 3 -1 6 5 6 7
0 12 6 12 14 0 8 5 16 11 18 5 2 11 10 13 18 1 8 19 49 38 90 86 180 159 353
160 377 0 4 5 14 11 22 6 7 12 18 14 25 1 6 27 85 57 175 31 90 53 167 51 171
-3 5 -1 10 4 12 6 1 12 17 15 33 2 17 5 31 6 33 2 1 3 5 4 10 2 4 8 27 15 52
7 25 15 52 16 60 2 8 4 15 5 15 1 0 3 9 5 20 1 11 8 40 14 65 14 54 16 63 26
115 5 22 9 42 10 45 5 21 17 86 20 113 3 17 7 43 10 57 15 73 25 152 20 161
-4 5 -2 9 2 9 5 0 9 19 10 43 1 23 4 53 7 67 4 14 9 59 12 100 3 41 8 98 10
125 2 28 6 113 9 190 2 77 7 150 9 163 3 12 0 22 -5 22 -6 0 -6 7 1 19 7 13 7
22 0 26 -6 4 -7 12 -1 23 5 9 6 25 2 36 -3 12 -6 65 -6 118 0 55 -4 98 -9 98
-6 0 -5 5 2 12 6 6 8 17 3 27 -5 9 -7 27 -6 41 1 14 -2 37 -6 53 -5 16 -4 27
2 27 6 0 7 5 3 11 -4 7 -9 30 -11 53 -2 22 -6 59 -9 81 -2 22 -6 58 -8 80 -6
50 -15 112 -21 145 -2 14 -7 40 -10 58 -6 41 -13 80 -20 112 -4 23 -14 73 -20
110 -5 25 -26 104 -32 120 -3 8 -5 23 -4 33 1 10 -3 25 -9 33 -7 8 -10 14 -7
14 3 0 -3 30 -14 68 -11 37 -27 94 -35 127 -9 33 -19 69 -24 80 -5 11 -21 58
-36 105 -15 47 -32 91 -37 98 -5 6 -7 12 -3 12 4 0 0 13 -9 30 -8 16 -15 33
-15 37 0 9 -35 99 -92 233 -40 94 -217 460 -228 470 -3 3 -11 16 -18 29 -8 13
-22 39 -33 57 -10 19 -28 51 -40 72 -22 40 -53 87 -142 222 -74 111 -83 124
-134 193 -24 31 -43 62 -43 67 0 6 -3 10 -8 10 -4 0 -41 44 -82 97 -41 53 -88
111 -105 129 -16 18 -44 50 -61 71 -91 109 -355 374 -493 493 -36 30 -69 60
-75 65 -41 39 -239 192 -349 270 -73 52 -137 99 -144 104 -7 6 -15 11 -18 11
-3 0 -51 29 -106 65 -55 36 -104 65 -108 65 -5 0 -14 7 -21 15 -7 8 -21 15
-31 15 -11 0 -19 4 -19 9 0 5 -14 14 -31 21 -17 7 -36 18 -42 24 -30 28 -452
228 -594 281 -35 13 -78 31 -96 39 -160 71 -686 218 -912 255 -33 5 -100 16
-150 25 -49 8 -115 18 -146 21 -31 3 -66 7 -77 10 -12 2 -58 6 -104 10 -46 3
-96 8 -113 11 -32 5 -652 13 -657 9z m592 -239 c58 -4 121 -9 140 -11 19 -2
64 -7 100 -10 36 -3 76 -8 90 -11 14 -2 45 -6 69 -9 66 -7 265 -43 371 -67 52
-12 97 -22 100 -23 246 -54 656 -194 898 -306 115 -53 364 -179 437 -222 218
-126 491 -310 603 -405 28 -24 52 -42 52 -39 0 3 10 -4 23 -16 12 -12 47 -42
76 -67 209 -174 422 -384 576 -564 28 -32 55 -64 60 -70 37 -41 188 -237 244
-316 63 -90 201 -300 201 -307 0 -3 6 -14 14 -22 8 -9 26 -38 41 -66 14 -27
36 -66 47 -85 22 -36 186 -357 188 -365 0 -3 12 -31 26 -62 29 -66 85 -203 89
-218 1 -5 11 -30 22 -55 11 -25 25 -67 33 -95 7 -27 17 -54 21 -59 5 -6 9 -16
9 -22 0 -7 4 -23 9 -36 5 -13 9 -26 10 -30 1 -4 8 -26 16 -48 8 -22 12 -40 8
-40 -3 0 -1 -6 4 -12 6 -7 16 -38 24 -68 7 -30 14 -57 14 -60 1 -3 5 -12 8
-20 4 -8 8 -26 10 -40 2 -14 7 -32 10 -40 3 -8 8 -31 11 -50 4 -19 9 -46 12
-60 3 -14 6 -34 7 -45 1 -11 5 -22 9 -25 4 -3 9 -26 12 -50 2 -25 7 -56 10
-70 3 -14 8 -38 10 -55 3 -16 8 -43 11 -60 4 -16 8 -43 10 -60 2 -16 6 -52 10
-79 14 -107 24 -217 30 -326 2 -36 5 -65 6 -65 1 0 2 -120 3 -267 1 -148 -1
-268 -4 -268 -3 0 -6 -28 -6 -63 -2 -70 -10 -177 -19 -252 -4 -27 -8 -63 -10
-80 -3 -16 -6 -43 -8 -60 -3 -16 -8 -55 -12 -85 -4 -30 -9 -58 -11 -61 -4 -7
-15 -71 -19 -104 -1 -11 -5 -33 -8 -50 -4 -16 -9 -39 -12 -50 -2 -11 -15 -69
-30 -130 -14 -60 -28 -121 -31 -134 -3 -13 -9 -32 -15 -43 -5 -10 -7 -18 -4
-18 4 0 3 -6 -2 -12 -4 -7 -8 -17 -9 -23 -1 -5 -10 -37 -20 -70 -10 -33 -19
-63 -20 -67 -1 -5 -3 -11 -4 -15 -1 -5 -2 -11 -1 -15 0 -5 -4 -8 -11 -8 -6 0
-8 -3 -5 -7 4 -3 2 -12 -4 -20 -6 -7 -9 -13 -5 -13 3 0 -4 -24 -15 -52 -11
-29 -21 -55 -21 -58 0 -3 -4 -14 -8 -25 -5 -11 -24 -60 -43 -110 -64 -166
-190 -432 -269 -570 -16 -27 -32 -58 -35 -67 -3 -10 -8 -18 -12 -18 -4 0 -13
-16 -21 -35 -8 -19 -17 -35 -22 -35 -4 0 -8 -4 -8 -10 0 -8 -91 -158 -113
-185 -4 -5 -22 -32 -40 -60 -17 -27 -36 -55 -42 -62 -5 -6 -21 -28 -35 -48
-23 -34 -153 -205 -203 -267 -12 -16 -41 -48 -64 -73 -24 -24 -43 -47 -43 -50
0 -12 -263 -283 -390 -400 -72 -67 -185 -163 -245 -210 -21 -16 -52 -41 -69
-55 -75 -61 -116 -90 -125 -90 -6 0 -11 -4 -11 -9 0 -5 -13 -17 -29 -28 -35
-22 -255 -168 -293 -194 -15 -11 -30 -19 -32 -19 -3 0 -30 -16 -60 -35 -30
-19 -58 -35 -61 -35 -3 0 -22 -10 -43 -23 -53 -34 -277 -149 -342 -176 -30
-13 -80 -35 -110 -49 -30 -14 -57 -27 -60 -27 -3 -1 -14 -5 -25 -10 -267 -109
-626 -221 -869 -271 -70 -14 -288 -54 -326 -59 -25 -3 -56 -8 -70 -10 -14 -2
-54 -7 -90 -11 -36 -3 -67 -7 -70 -9 -16 -9 -304 -20 -540 -20 -272 1 -456 10
-585 30 -16 2 -52 7 -80 10 -185 22 -501 87 -710 146 -141 41 -355 110 -410
134 -16 7 -61 25 -100 40 -368 143 -838 406 -1150 644 -160 122 -201 154 -235
184 -19 18 -66 59 -105 92 -85 73 -395 383 -450 450 -22 27 -47 57 -57 66 -9
10 -51 61 -94 116 -42 54 -83 103 -90 109 -8 6 -14 15 -14 19 0 4 -13 24 -30
45 -16 21 -30 42 -30 48 0 5 -6 12 -13 15 -8 3 -22 22 -31 42 -10 20 -24 39
-32 42 -8 3 -14 10 -14 17 0 6 -16 34 -36 61 -19 28 -42 65 -51 83 -8 17 -19
32 -24 32 -5 0 -9 6 -9 14 0 8 -3 16 -8 18 -4 2 -15 19 -24 38 -10 19 -22 42
-28 50 -26 41 -97 169 -109 198 -7 17 -17 32 -22 32 -5 0 -6 6 -3 14 3 8 1 17
-5 20 -9 6 -71 126 -76 146 0 3 -16 37 -35 75 -18 39 -33 73 -32 78 1 4 -3 7
-9 7 -5 0 -7 5 -4 10 4 6 0 22 -9 35 -9 13 -16 29 -16 34 0 5 -10 31 -22 58
-11 26 -22 53 -23 58 -1 10 -9 31 -25 70 -16 37 -80 236 -96 298 -1 4 -2 8 -4
10 -1 1 -3 9 -5 18 -1 9 -11 43 -20 75 -9 33 -19 68 -21 79 -2 11 -11 47 -19
80 -9 33 -18 74 -20 90 -7 41 -13 70 -15 70 -2 0 -5 18 -14 75 -6 38 -13 74
-21 118 -3 15 -8 47 -11 72 -2 25 -7 56 -9 70 -9 51 -18 136 -19 177 0 24 -3
43 -6 43 -3 0 -6 24 -6 53 -4 123 -14 397 -15 404 -1 4 -1 10 0 13 1 3 4 73 7
155 5 146 11 260 14 260 1 0 3 12 4 28 1 15 -3 27 -9 27 -6 0 -7 3 0 8 6 4 11
18 12 32 2 14 5 48 7 75 3 28 6 50 6 50 3 0 19 104 25 160 2 22 8 58 14 80 5
22 12 58 15 80 3 22 8 51 11 65 3 14 7 35 9 47 3 13 7 27 10 32 3 5 8 26 12
47 3 22 12 64 20 94 8 30 17 65 20 77 2 12 9 35 15 50 6 16 12 35 14 43 2 8 9
35 16 60 7 25 14 50 15 55 2 6 21 62 44 125 22 63 42 120 44 125 2 6 8 21 13
35 6 14 9 28 6 33 -2 4 0 7 6 7 6 0 13 16 17 35 3 19 10 35 14 35 4 0 11 12
15 27 24 97 344 719 376 731 5 2 9 8 9 13 0 14 166 262 234 350 12 15 32 41
46 59 14 18 30 37 35 44 6 6 23 29 40 51 16 22 34 45 41 50 6 6 37 42 69 80
120 144 285 310 515 519 14 12 54 46 90 76 36 29 68 58 72 64 4 6 8 7 8 3 0
-4 12 4 28 18 15 14 69 56 121 93 51 37 109 79 130 94 20 15 60 41 89 58 28
17 58 37 65 44 6 7 19 15 27 19 8 4 24 13 34 19 52 34 126 78 129 78 3 0 34
17 68 38 35 21 98 55 139 76 41 20 82 41 90 46 14 9 67 33 205 95 33 15 105
44 160 66 55 22 109 44 120 49 45 20 413 135 495 155 206 48 302 68 430 89
154 25 185 30 290 41 30 4 66 8 80 10 14 2 84 7 155 10 72 4 131 8 132 9 5 5
430 -2 523 -8z"/>
<path d="M5258 9796 c-1 -2 -41 -6 -88 -10 -47 -4 -96 -8 -110 -10 -14 -2 -47
-7 -75 -11 -27 -3 -108 -17 -179 -31 -670 -133 -1288 -499 -1695 -1004 -42
-52 -79 -96 -83 -98 -5 -2 -8 -8 -8 -13 0 -9 -56 -93 -82 -123 -10 -11 -18
-26 -18 -33 0 -7 -4 -13 -9 -13 -5 0 -11 -8 -14 -17 -7 -23 -49 -94 -64 -111
-7 -7 -13 -19 -13 -25 0 -7 -8 -24 -17 -37 -10 -14 -18 -31 -20 -39 -1 -8 -5
-17 -10 -20 -4 -3 -10 -15 -11 -26 -2 -11 -8 -21 -13 -23 -5 -2 -9 -12 -9 -23
0 -10 -4 -19 -10 -19 -5 0 -10 -6 -10 -14 0 -12 -10 -39 -50 -131 -5 -11 -16
-42 -25 -70 -10 -27 -20 -57 -23 -65 -3 -8 -6 -19 -7 -25 -2 -5 -10 -35 -20
-65 -25 -83 -58 -216 -69 -281 -6 -34 -11 -63 -21 -116 -10 -53 -18 -118 -19
-160 -1 -24 -3 -43 -6 -43 -14 0 -20 -517 -7 -614 10 -68 53 -240 68 -267 5
-11 7 -24 4 -29 -3 -6 -2 -10 4 -10 6 0 13 -11 17 -25 3 -14 28 -66 55 -117
27 -51 49 -96 49 -100 0 -4 5 -8 10 -8 6 0 10 -4 10 -10 0 -5 6 -18 14 -27 8
-10 38 -49 67 -88 74 -98 98 -124 235 -260 111 -110 154 -150 299 -276 92 -80
188 -164 211 -184 163 -148 190 -176 249 -264 71 -107 197 -345 188 -355 -4
-3 -1 -6 5 -6 7 0 12 -8 12 -18 0 -10 4 -22 9 -27 36 -37 32 -297 -7 -439 -6
-20 -8 -36 -6 -36 3 0 0 -8 -5 -17 -5 -10 -11 -31 -15 -48 -3 -16 -12 -57 -22
-90 -9 -33 -18 -67 -19 -75 -2 -8 -4 -17 -5 -20 -1 -3 -2 -9 -1 -13 1 -4 -3
-16 -8 -25 -5 -9 -11 -36 -14 -59 -4 -22 -9 -52 -12 -66 -12 -45 -12 -181 0
-232 21 -92 42 -136 98 -200 32 -36 45 -61 49 -92 15 -108 108 -230 219 -286
112 -56 108 -56 1163 -56 533 0 970 -2 973 -4 2 -2 -34 -5 -79 -7 -174 -4
-573 -19 -698 -25 -41 -2 -138 -6 -215 -10 -240 -10 -425 -19 -580 -30 -44 -3
-111 -8 -150 -11 -212 -14 -324 -28 -356 -45 -13 -7 -18 -58 -10 -122 1 -8
311 -1 776 18 72 3 186 7 255 10 159 6 471 21 625 30 33 2 107 6 165 9 233 13
459 39 490 56 10 6 15 27 16 70 l1 62 -89 -4 c-48 -1 -88 0 -88 5 0 4 3 6 8 5
22 -6 116 18 172 44 46 21 85 50 133 100 37 38 65 74 62 79 -4 5 -1 9 5 9 6 0
9 4 5 9 -3 5 -1 12 4 15 8 5 20 51 27 105 1 13 20 42 42 65 46 47 78 107 97
180 15 58 13 246 -3 287 -6 15 -9 29 -7 31 2 2 -5 37 -16 78 -11 41 -22 86
-25 100 -3 14 -8 34 -11 45 -4 11 -8 25 -9 30 -2 6 -6 21 -9 35 -11 43 -26
104 -29 125 -3 11 -7 34 -11 50 -3 17 -8 44 -11 60 -7 42 -6 195 1 225 3 14 8
35 10 46 6 28 30 84 71 166 18 38 31 68 28 68 -3 0 4 10 16 22 11 12 20 25 20
29 0 11 98 166 140 224 21 28 154 167 296 310 284 286 350 355 438 460 33 39
62 72 65 75 4 3 28 34 53 70 26 36 51 70 55 75 5 6 23 33 40 60 18 28 37 56
43 63 15 17 140 268 145 289 2 10 13 45 25 78 12 33 24 71 27 85 5 28 7 34 16
70 4 14 10 43 14 65 8 51 12 355 4 355 -3 0 -6 26 -5 58 0 31 -3 82 -7 112 -4
30 -10 80 -14 110 -7 55 -8 62 -20 135 -17 107 -33 178 -60 283 -29 108 -94
306 -121 367 -10 22 -19 45 -20 51 -4 21 -145 298 -160 315 -8 8 -14 19 -14
23 0 9 -129 206 -147 224 -7 7 -13 17 -13 20 0 4 -10 18 -22 32 -13 14 -41 48
-63 75 -85 107 -302 313 -430 410 -33 25 -65 49 -70 53 -21 17 -167 112 -172
112 -3 0 -17 9 -33 20 -74 53 -405 204 -540 247 -87 28 -211 63 -258 74 -26 6
-56 13 -67 15 -11 3 -56 11 -100 19 -44 8 -91 17 -105 20 -13 2 -56 7 -95 11
-38 3 -74 9 -79 12 -9 5 -481 13 -488 8z m817 -660 c22 -3 54 -8 70 -11 17 -2
48 -7 70 -11 175 -27 370 -80 532 -145 68 -27 142 -58 165 -70 76 -38 213
-122 221 -136 4 -7 12 -13 17 -13 38 0 310 -289 310 -329 0 -5 3 -11 8 -13 10
-4 62 -85 62 -97 0 -5 3 -11 8 -13 13 -5 62 -105 55 -112 -3 -3 -1 -6 5 -6 7
0 12 -9 12 -19 0 -11 3 -21 8 -23 8 -3 43 -93 46 -118 1 -8 8 -31 14 -51 7
-20 15 -49 17 -65 3 -16 8 -47 11 -69 17 -102 2 -331 -25 -384 -5 -9 -6 -22
-4 -28 3 -7 0 -13 -7 -13 -6 0 -9 -4 -6 -9 3 -5 -1 -26 -9 -47 -27 -68 -117
-243 -137 -263 -10 -11 -18 -24 -18 -28 -1 -17 -156 -200 -240 -282 -63 -62
-158 -145 -234 -206 -21 -16 -46 -37 -56 -46 -26 -22 -53 -41 -150 -109 -47
-33 -90 -64 -97 -70 -7 -5 -14 -10 -17 -10 -2 0 -44 -26 -92 -58 -49 -33 -152
-97 -229 -144 -113 -69 -487 -339 -539 -390 -7 -7 -35 -31 -61 -53 -134 -110
-261 -261 -315 -374 -17 -36 -36 -74 -41 -84 -22 -40 -22 -112 -1 -153 18 -36
86 -129 117 -160 6 -6 27 -30 46 -54 18 -23 46 -56 61 -73 15 -18 30 -40 34
-49 3 -10 10 -18 15 -18 6 0 7 -4 4 -10 -3 -5 -2 -10 4 -10 14 0 42 -79 44
-124 l2 -39 -70 -24 c-115 -39 -191 -50 -320 -47 -66 1 -133 5 -150 8 -16 2
-48 7 -70 11 -68 11 -198 46 -250 67 -95 39 -120 51 -190 96 -71 44 -195 165
-195 189 0 7 -4 13 -10 13 -5 0 -12 11 -16 25 -3 14 -10 25 -15 25 -5 0 -6 7
-3 15 4 8 2 15 -3 15 -24 0 -46 194 -31 280 24 142 120 319 258 475 80 90 383
383 466 450 27 21 51 42 54 46 5 6 359 271 400 299 102 70 449 332 496 375 6
5 44 39 85 75 194 172 308 312 388 475 48 99 72 171 76 231 1 17 4 35 7 40 4
8 3 48 -5 162 -1 17 -5 32 -10 32 -4 0 -6 4 -3 9 7 10 -36 138 -61 183 -82
148 -235 246 -443 282 -87 16 -275 18 -370 5 -36 -5 -82 -11 -102 -14 -46 -5
-236 -52 -298 -72 -94 -31 -217 -76 -270 -100 -30 -14 -75 -34 -100 -45 -83
-36 -281 -150 -406 -234 -244 -165 -438 -340 -587 -529 -4 -5 -18 -23 -32 -40
-13 -16 -23 -31 -21 -33 4 -3 32 -8 101 -16 174 -21 266 -71 310 -169 18 -43
20 -58 13 -116 -9 -72 -55 -177 -94 -216 -13 -13 -24 -29 -24 -35 0 -5 -3 -10
-7 -10 -5 0 -30 -20 -57 -45 -56 -51 -176 -116 -268 -146 -178 -59 -508 5
-716 137 -29 19 -57 34 -62 34 -6 0 -10 4 -10 9 0 5 -15 19 -34 30 -32 20 -96
82 -151 146 -25 30 -56 87 -62 115 -5 20 -5 151 -1 170 16 67 44 150 50 150 5
0 8 6 8 13 0 47 173 319 319 501 53 66 107 133 121 150 28 36 288 296 340 341
50 44 229 186 270 215 63 44 218 147 232 153 7 4 31 18 53 31 94 58 371 192
460 222 6 2 62 22 127 44 107 37 298 88 393 105 22 4 51 9 65 12 36 7 66 11
145 19 39 3 72 8 75 11 6 5 475 -4 525 -11z m-550 -5111 c112 -8 130 -11 233
-36 215 -53 337 -137 359 -248 5 -27 6 -32 0 -66 -18 -128 -316 -365 -541
-430 -57 -17 -209 -22 -266 -10 -14 3 -41 8 -60 11 -68 11 -186 56 -239 90
-70 47 -147 122 -161 159 -17 42 -21 138 -7 182 6 21 10 41 9 46 -1 4 2 7 7 7
5 0 12 8 16 19 3 10 15 29 26 42 12 13 29 33 38 45 66 84 258 179 391 193 59
7 59 7 195 -4z m879 -1323 c3 -5 -1 -9 -9 -9 -8 0 -12 4 -9 9 3 4 7 8 9 8 2 0
6 -4 9 -8z"/>
<path d="M6497 2434 c-1 -1 -103 -5 -227 -9 -124 -3 -261 -8 -305 -10 -44 -2
-152 -6 -240 -10 -88 -3 -198 -7 -245 -10 -47 -2 -143 -7 -215 -10 -187 -8
-431 -22 -545 -30 -36 -3 -101 -7 -145 -11 -108 -7 -233 -22 -270 -32 -29 -8
-30 -10 -30 -73 l0 -64 75 1 c91 2 469 14 600 19 52 2 160 7 240 10 683 27
1188 57 1309 80 9 1 35 6 59 10 23 4 42 10 43 13 4 29 4 122 -1 123 -11 2
-101 5 -103 3z"/>
<path d="M6307 2163 c-2 -1 -88 -4 -192 -8 -105 -3 -235 -8 -290 -10 -55 -3
-161 -7 -235 -10 -314 -12 -792 -37 -952 -50 -32 -3 -86 -7 -120 -10 -35 -3
-79 -7 -98 -10 -19 -2 -55 -7 -80 -11 -25 -3 -50 -10 -57 -15 -6 -6 -12 -37
-12 -70 l0 -60 192 6 c231 7 408 13 582 20 72 2 198 7 280 10 83 3 184 7 225
10 41 2 127 7 190 10 126 5 269 13 370 20 175 12 212 15 242 19 18 2 65 7 103
11 125 11 140 17 141 50 1 17 3 46 5 65 l4 35 -148 0 c-82 0 -149 -1 -150 -2z"/>
<path d="M6437 1903 c-1 -1 -88 -4 -192 -8 -105 -4 -230 -8 -280 -10 -49 -2
-162 -6 -250 -10 -88 -3 -196 -7 -240 -10 -44 -2 -145 -7 -225 -10 -157 -7
-212 -10 -365 -19 -179 -11 -390 -27 -430 -32 -16 -2 -54 -6 -84 -10 -96 -10
-101 -15 -101 -83 0 -64 6 -71 56 -66 16 2 139 6 274 10 135 4 281 8 325 10
44 2 154 6 245 9 91 4 206 8 255 11 234 10 374 16 420 20 28 1 111 6 185 10
74 4 149 8 165 10 17 2 66 7 110 10 44 3 94 8 110 10 17 2 57 6 90 10 90 10
94 14 92 87 l-2 63 -78 0 c-43 0 -79 -1 -80 -2z"/>
<path d="M6337 1634 c-1 -1 -99 -5 -217 -9 -118 -3 -253 -8 -300 -10 -47 -2
-152 -6 -235 -10 -82 -3 -181 -8 -220 -10 -38 -2 -133 -7 -210 -10 -77 -3
-162 -8 -190 -10 -27 -2 -97 -6 -155 -10 -258 -14 -472 -35 -522 -51 -15 -4
-18 -17 -18 -70 l0 -65 203 6 c111 3 252 8 312 10 61 2 180 7 265 10 85 3 202
7 260 10 58 3 164 7 235 10 212 9 488 24 560 30 28 2 88 7 135 10 202 15 262
22 317 36 l41 11 1 65 0 64 -130 -3 c-72 -2 -131 -4 -132 -4z"/>
<path d="M6580 1421 c-14 -8 -105 -25 -195 -35 -66 -8 -259 -25 -365 -31 -41
-3 -106 -7 -145 -10 -38 -2 -115 -7 -170 -10 -55 -3 -134 -8 -175 -10 -97 -6
-215 -13 -365 -20 -66 -3 -147 -8 -180 -10 -33 -2 -109 -7 -170 -10 -60 -3
-135 -8 -165 -10 -30 -2 -93 -7 -140 -10 -47 -3 -96 -7 -110 -10 -14 -2 -49
-6 -77 -10 l-53 -7 0 -93 0 -93 33 -11 c111 -34 499 -51 1217 -51 608 -1 948
14 1040 44 l35 11 1 193 c1 105 1 192 0 192 0 0 -8 -4 -16 -9z"/>
</g>
</svg>
